{"title":"An American in Paris(1951)MPEG-4(720p)[DaScubaDude]","uid":13277749,"size":1128098817,"categoryP":"video","categoryS":"movies","magnet":"?xt=urn:btih:c3cf53fe9d7e48c17453fc0babbeadfdc1bfd7c4&amp;dn=An+American+in+Paris%281951%29MPEG-4%28720p%29%5BDaScubaDude%5D&amp;tr=udp%3A%2F%2Ftracker.leechers-paradise.org%3A6969&amp;tr=udp%3A%2F%2Fzer0day.ch%3A1337&amp;tr=udp%3A%2F%2Fopen.demonii.com%3A1337&amp;tr=udp%3A%2F%2Ftracker.coppersurfer.tk%3A6969&amp;tr=udp%3A%2F%2Fexodus.desync.com%3A6969","seeders":1,"leechers":0,"uploader":"dascuba","files":1,"time":1453458106,"description":"An American in Paris (1951)\r\nPassed  |  113 min  |  Musical, Romance  |  11 November 1951 (USA)\r\n7.3 Your rating:   -/10   Ratings: 7.3/10 from 20,918 users   \r\nReviews: 133 user | 97 critic\r\nThree friends struggle to find work in Paris. However, things become more complicated when two of them fall in love with the same woman.\r\n\r\nDirector: Vincente Minnelli\r\nWriter: Alan Jay Lerner (story)\r\nStars: Gene Kelly, Leslie Caron, Oscar Levant\r\n\r\nGeneral\r\nComplete name                            :An American in ParisAN_AMERICAN_IN_PARIS_SE_D1_Title1.mp4\r\nFormat                                   : MPEG-4\r\nFormat profile                           : Base Media\r\nCodec ID                                 : isom\r\nFile size                                : 1.05 GiB\r\nDuration                                 : 1h 53mn\r\nOverall bit rate                         : 1 326 Kbps\r\nMovie name                               : AN_AMERICAN_IN_PARIS_SE_D1\r\nGenre                                    : Musical\r\nWriting application                      : Lavf54.6.100\r\n\r\nVideo\r\nID                                       : 1\r\nFormat                                   : AVC\r\nFormat/Info                              : Advanced Video Codec\r\nFormat profile                           :   \r\nFormat settings, CABAC                   : No\r\nFormat settings, ReFrames                : 6 frames\r\nCodec ID                                 : avc1\r\nCodec ID/Info                            : Advanced Video Coding\r\nDuration                                 : 1h 53mn\r\nBit rate                                 : 1 203 Kbps\r\nWidth                                    : 720 pixels\r\nHeight                                   : 540 pixels\r\nDisplay aspect ratio                     : 4:3\r\nFrame rate mode                          : Constant\r\nFrame rate                               : 29.970 fps\r\nColor space                              : YUV\r\nChroma subsampling                       : 4:2:0\r\nBit depth                                : 8 bits\r\nScan type                                : Progressive\r\nBits/(Pixel*Frame)                       : 0.103\r\nStream size                              : 976 MiB (91%)\r\n\r\nAudio\r\nID                                       : 2\r\nFormat                                   : AAC\r\nFormat/Info                              : Advanced Audio Codec\r\nFormat profile                           : LC\r\nCodec ID                                 : 40\r\nDuration                                 : 1h 53mn\r\nBit rate mode                            : Constant\r\nBit rate                                 : 116 Kbps\r\nChannel(s)                               : 2 channels\r\nChannel(s)_Original                      : 1 channel\r\nChannel positions                        : Front: C\r\nSampling rate                            : 44.1 KHz\r\nCompression mode                         : Lossy\r\nStream size                              : 94.3 MiB (9%)","torrent":{"xt":"urn:btih:c3cf53fe9d7e48c17453fc0babbeadfdc1bfd7c4","amp;dn":"An+American+in+Paris%281951%29MPEG-4%28720p%29%5BDaScubaDude%5D","amp;tr":["udp%3A%2F%2Ftracker.leechers-paradise.org%3A6969","udp%3A%2F%2Fzer0day.ch%3A1337","udp%3A%2F%2Fopen.demonii.com%3A1337","udp%3A%2F%2Ftracker.coppersurfer.tk%3A6969","udp%3A%2F%2Fexodus.desync.com%3A6969"],"infoHash":"c3cf53fe9d7e48c17453fc0babbeadfdc1bfd7c4","infoHashBuffer":{"type":"Buffer","data":[195,207,83,254,157,126,72,193,116,83,252,11,171,190,173,253,193,191,215,196]},"announce":[],"urlList":[]}}